<svg fill="none" xmlns="http://www.w3.org/2000/svg" viewBox="0 0 540 401"><g clip-path="url(#a)"><g filter="url(#b)"><path d="M11.348 15.352a4.949 4.949 0 0 1 4.95-4.95h499.839a4.949 4.949 0 0 1 4.949 4.95v36.662H11.348V15.352Z" fill="#D2E3FF"/><path d="M11.348 52.014h509.738v43.503H11.348V52.014Z" fill="#E1ECFF"/><path d="M413.267 82.624c0 2.945-1.154 5.327-2.589 5.327H11.348V58.634h399.338c1.427 0 2.589 2.383 2.589 5.327v18.663h-.008ZM440.579 86.618c7.288 0 13.197-5.904 13.197-13.185 0-7.283-5.909-13.186-13.197-13.186-7.289 0-13.198 5.903-13.198 13.186 0 7.281 5.909 13.184 13.198 13.184Z" fill="#fff"/><path d="m445.258 64.467-.53-.177c-3.11-.907-4.822.583-5.27 2.113-.625 2.098.434 3.533 3.192 5.646 3.436 2.64 4.795 5.01 3.79 8.3a6.453 6.453 0 0 1-1.44 2.586 10.062 10.062 0 0 0 4.512-3.635 10.013 10.013 0 0 0 .154-11.074 10.054 10.054 0 0 0-4.408-3.759Z" fill="#FF9700"/><path d="M440.476 73.987c-3.3-2.383-5.012-4.956-4.075-8.124.137-.47.323-.924.557-1.354a10.03 10.03 0 0 0-5.674 10.72 9.99 9.99 0 0 0 1.599 3.998 7.863 7.863 0 0 0 4.429 3.019c2.988.826 5.433-.325 6.086-2.586.651-2.261-.231-3.615-2.922-5.673Z" fill="#30343F"/><path d="M401.232 83.122a.926.926 0 0 1-.503-.153l-5.387-3.745-5.401 3.745a.883.883 0 0 1-1.035-.014.878.878 0 0 1-.322-.978l1.903-6.289-5.233-3.968a.883.883 0 0 1 .007-1.418.884.884 0 0 1 .511-.176l6.562-.14 2.154-6.204c.252-.713 1.428-.713 1.679 0l2.155 6.204 6.563.14a.889.889 0 0 1 .829 1.154.872.872 0 0 1-.312.44l-5.233 3.968 1.903 6.289a.91.91 0 0 1-.321.978.883.883 0 0 1-.519.167Zm-5.904-5.882c.182 0 .35.056.503.153l3.807 2.641-1.344-4.43a.882.882 0 0 1 .308-.964l3.694-2.794-4.631-.099a.904.904 0 0 1-.826-.6l-1.525-4.374-1.525 4.374a.907.907 0 0 1-.826.6l-4.631.099 3.694 2.794c.294.224.42.615.308.965l-1.344 4.43 3.807-2.642a1.06 1.06 0 0 1 .531-.153Z" fill="#A5A5A5"/><path d="M487.38 67.416c0 .852-.686 1.537-1.54 1.537H469.4a1.532 1.532 0 0 1-1.539-1.537c0-.852.686-1.538 1.539-1.538h16.44c.854 0 1.54.686 1.54 1.538Zm0 6.344c0 .853-.686 1.537-1.54 1.537H469.4a1.533 1.533 0 0 1-1.539-1.537c0-.852.686-1.537 1.539-1.537h16.44c.854 0 1.54.685 1.54 1.537Zm0 6.359c0 .852-.686 1.536-1.54 1.536H469.4a1.534 1.534 0 0 1-1.539-1.536c0-.853.686-1.538 1.539-1.538h16.44c.854 0 1.54.685 1.54 1.538Z" fill="#909090"/><path d="M11.348 95.517h509.738v222.241H11.348V95.517Z" fill="#F4F8FF"/><path d="M51.068 280.876h47.286a1.891 1.891 0 0 0 1.891-1.892v-3.783a1.891 1.891 0 0 0-1.891-1.891H51.068a1.891 1.891 0 0 0-1.891 1.891v3.783c0 1.045.847 1.892 1.891 1.892Z" fill="url(#c)"/><path d="M51.068 296.007h87.006a1.891 1.891 0 0 0 1.891-1.891v-3.783a1.892 1.892 0 0 0-1.891-1.892H51.068a1.892 1.892 0 0 0-1.891 1.892v3.783c0 1.044.847 1.891 1.891 1.891Z" fill="url(#d)"/><path d="M51.068 311.138h58.634a1.891 1.891 0 0 0 1.892-1.891v-3.783a1.892 1.892 0 0 0-1.892-1.891H51.068a1.891 1.891 0 0 0-1.891 1.891v3.783a1.89 1.89 0 0 0 1.891 1.891Z" fill="url(#e)"/><path d="M157.933 133.345H52.014a2.837 2.837 0 0 0-2.837 2.837v62.417a2.837 2.837 0 0 0 2.837 2.837h105.919a2.838 2.838 0 0 0 2.838-2.837v-62.417a2.838 2.838 0 0 0-2.838-2.837Z" fill="url(#f)"/><path d="M243.047 212.785H52.014a2.837 2.837 0 0 0-2.837 2.837v32.154a2.837 2.837 0 0 0 2.837 2.837h191.033a2.837 2.837 0 0 0 2.837-2.837v-32.154a2.837 2.837 0 0 0-2.837-2.837Z" fill="url(#g)"/></g><g filter="url(#h)"><path d="m428.376 101.689 10.273-9.956 10.273 9.956-10.273 9.957-10.273-9.957Z" fill="#156FFF"/><path d="M299.79 105.919a4.727 4.727 0 0 1 4.728-4.728h205.219a4.73 4.73 0 0 1 4.729 4.728v71.874H299.79v-71.874Z" fill="#156FFF"/><path d="M514.466 374.501a4.725 4.725 0 0 1-4.729 4.728H304.518a4.727 4.727 0 0 1-4.728-4.728V177.793h214.676v196.708Z" fill="#fff"/><g filter="url(#i)"><path d="M321.541 134.291a7.566 7.566 0 1 0 0-15.132 7.566 7.566 0 0 0 0 15.132Z" fill="#fff"/></g><g filter="url(#j)"><path d="M497.443 210.893h-180.63a2.838 2.838 0 0 0-2.838 2.837v148.477a2.838 2.838 0 0 0 2.838 2.837h180.63a2.837 2.837 0 0 0 2.837-2.837V213.73a2.837 2.837 0 0 0-2.837-2.837Z" fill="#fff"/></g><path opacity=".05" d="M341.477 341.401h-13.392a1.816 1.816 0 0 0-1.815 1.816v.151c0 1.003.813 1.816 1.815 1.816h13.392a1.815 1.815 0 0 0 1.815-1.816v-.151a1.815 1.815 0 0 0-1.815-1.816ZM377.414 341.401h-13.392a1.816 1.816 0 0 0-1.815 1.816v.151c0 1.003.813 1.816 1.815 1.816h13.392a1.816 1.816 0 0 0 1.815-1.816v-.151a1.816 1.816 0 0 0-1.815-1.816ZM413.351 341.401h-13.392a1.816 1.816 0 0 0-1.815 1.816v.151c0 1.003.813 1.816 1.815 1.816h13.392a1.816 1.816 0 0 0 1.815-1.816v-.151a1.816 1.816 0 0 0-1.815-1.816ZM449.288 341.401h-13.392a1.816 1.816 0 0 0-1.815 1.816v.151c0 1.003.813 1.816 1.815 1.816h13.392a1.816 1.816 0 0 0 1.815-1.816v-.151a1.816 1.816 0 0 0-1.815-1.816ZM485.225 341.401h-13.392a1.815 1.815 0 0 0-1.815 1.816v.151c0 1.003.812 1.816 1.815 1.816h13.392a1.816 1.816 0 0 0 1.815-1.816v-.151a1.816 1.816 0 0 0-1.815-1.816Z" fill="#092540"/><path opacity=".05" d="M326.27 231.226h160.77M326.27 263.38h160.77m-160.77 32.154h160.77m-160.77 32.154h160.77" stroke="#092540"/><path d="M337.753 309.158c-3.564.476-6.731-.952-11.483-4.282v22.812h160.77v-44.222c-.527 5.075-3.722 15.034-12.275 14.273-8.554-.762-15.617-21.856-20.196-26.168-8.194-7.718-15.839-1.903-19.799-3.807-6.732-3.235-5.147-20.934-13.068-20.934-11.866 0-11.229 37.814-18.357 40.193-5.544 1.85-9.108-8.565-13.463-8.565-7.343 0-3.818 23.087-12.53 24.038-8.712.953-14.652-9.039-20.987-8.563-6.336.476-12.672 14.432-18.612 15.225Z" fill="url(#k)"/><path d="M326.27 304.876c4.752 3.33 7.919 4.758 11.483 4.282 5.94-.793 12.276-14.749 18.612-15.225 6.335-.476 12.275 9.516 20.987 8.563 8.712-.951 5.187-24.038 12.53-24.038 4.355 0 7.919 10.415 13.463 8.565 7.128-2.379 6.491-40.193 18.357-40.193 7.921 0 6.336 17.699 13.068 20.934 3.96 1.904 12.915-3.083 19.799 3.807 5.991 5.995 11.642 25.406 20.196 26.168 8.553.761 11.748-9.198 12.275-14.273" stroke="url(#l)" stroke-width="2" stroke-linecap="round" stroke-linejoin="round"/><g filter="url(#m)"><path d="M497.443 151.313h-180.63a2.838 2.838 0 0 0-2.838 2.838v43.502a2.838 2.838 0 0 0 2.838 2.837h180.63a2.837 2.837 0 0 0 2.837-2.837v-43.502a2.838 2.838 0 0 0-2.837-2.838Z" fill="#fff"/></g><path d="M365.119 170.228h-37.034a1.816 1.816 0 0 0-1.815 1.815v.152c0 1.003.813 1.815 1.815 1.815h37.034a1.815 1.815 0 0 0 1.816-1.815v-.152a1.816 1.816 0 0 0-1.816-1.815Z" fill="url(#n)"/><path d="M348.097 177.793h-20.012a1.816 1.816 0 0 0-1.815 1.816v.151c0 1.003.813 1.816 1.815 1.816h20.012a1.816 1.816 0 0 0 1.815-1.816v-.151a1.816 1.816 0 0 0-1.815-1.816Z" fill="url(#o)"/><path d="M376.468 124.834h-37.034a1.816 1.816 0 0 0-1.816 1.815v.152c0 1.003.813 1.815 1.816 1.815h37.034a1.815 1.815 0 0 0 1.816-1.815v-.152a1.816 1.816 0 0 0-1.816-1.815Z" fill="url(#p)"/><path d="M478.605 170.228h-30.414a1.816 1.816 0 0 0-1.816 1.815v.152c0 1.003.813 1.815 1.816 1.815h30.414a1.815 1.815 0 0 0 1.815-1.815v-.152a1.816 1.816 0 0 0-1.815-1.815Z" fill="url(#q)"/><path d="M485.225 177.793h-37.034a1.816 1.816 0 0 0-1.816 1.816v.151c0 1.003.813 1.816 1.816 1.816h37.034a1.816 1.816 0 0 0 1.815-1.816v-.151a1.816 1.816 0 0 0-1.815-1.816Z" fill="url(#r)"/><path d="M410.513 170.228h-18.119a1.816 1.816 0 0 0-1.816 1.815v.152c0 1.003.813 1.815 1.816 1.815h18.119a1.815 1.815 0 0 0 1.816-1.815v-.152a1.816 1.816 0 0 0-1.816-1.815Z" fill="url(#s)"/><path d="M419.025 177.793h-26.631a1.816 1.816 0 0 0-1.816 1.816v.151c0 1.003.813 1.816 1.816 1.816h26.631a1.816 1.816 0 0 0 1.816-1.816v-.151a1.816 1.816 0 0 0-1.816-1.816Z" fill="url(#t)"/><path d="M483.257 115.377a1.892 1.892 0 1 0 0-3.784 1.892 1.892 0 0 0 0 3.784ZM490.823 115.377a1.892 1.892 0 1 0 0-3.784 1.892 1.892 0 0 0 0 3.784ZM498.389 115.377a1.892 1.892 0 1 0-.001-3.783 1.892 1.892 0 0 0 .001 3.783Z" fill="#fff"/><path opacity=".05" d="M375.919 163.608v25.534m63.363-25.534v25.534" stroke="#092540"/></g></g><defs><linearGradient id="c" x1="132.369" y1="186.305" x2="169.839" y2="235.131" gradientUnits="userSpaceOnUse"><stop stop-color="#156FFF"/><stop offset="1" stop-color="#fff" stop-opacity="0"/></linearGradient><linearGradient id="d" x1="197.074" y1="201.436" x2="225.304" y2="266.832" gradientUnits="userSpaceOnUse"><stop stop-color="#156FFF"/><stop offset="1" stop-color="#fff" stop-opacity="0"/></linearGradient><linearGradient id="e" x1="150.856" y1="216.567" x2="185.795" y2="272.212" gradientUnits="userSpaceOnUse"><stop stop-color="#156FFF"/><stop offset="1" stop-color="#fff" stop-opacity="0"/></linearGradient><linearGradient id="f" x1="-34.968" y1="324.619" x2="244.759" y2="165.135" gradientUnits="userSpaceOnUse"><stop stop-color="#156FFF"/><stop offset="1" stop-color="#fff" stop-opacity="0"/></linearGradient><linearGradient id="g" x1="-99.147" y1="319.048" x2="53.778" y2="42.409" gradientUnits="userSpaceOnUse"><stop stop-color="#156FFF"/><stop offset="1" stop-color="#fff" stop-opacity="0"/></linearGradient><linearGradient id="k" x1="406.655" y1="220.35" x2="406.655" y2="335.727" gradientUnits="userSpaceOnUse"><stop stop-color="#166FFE" stop-opacity=".64"/><stop offset="1" stop-color="#fff" stop-opacity="0"/></linearGradient><linearGradient id="l" x1="481.366" y1="277.471" x2="458.929" y2="357.876" gradientUnits="userSpaceOnUse"><stop stop-color="#277AFF"/><stop offset="1" stop-color="#fff"/></linearGradient><linearGradient id="n" x1="329.716" y1="170.228" x2="371.286" y2="170.228" gradientUnits="userSpaceOnUse"><stop stop-color="#277AFF"/><stop offset="1" stop-color="#fff" stop-opacity="0"/></linearGradient><linearGradient id="o" x1="328.274" y1="177.793" x2="352.442" y2="177.793" gradientUnits="userSpaceOnUse"><stop stop-color="#277AFF"/><stop offset="1" stop-color="#fff" stop-opacity="0"/></linearGradient><linearGradient id="p" x1="341.064" y1="124.834" x2="382.635" y2="124.834" gradientUnits="userSpaceOnUse"><stop stop-color="#fff"/><stop offset="1" stop-color="#fff" stop-opacity="0"/></linearGradient><linearGradient id="q" x1="449.26" y1="170.228" x2="484.063" y2="170.228" gradientUnits="userSpaceOnUse"><stop stop-color="#277AFF"/><stop offset="1" stop-color="#fff" stop-opacity="0"/></linearGradient><linearGradient id="r" x1="449.821" y1="177.793" x2="491.391" y2="177.793" gradientUnits="userSpaceOnUse"><stop stop-color="#277AFF"/><stop offset="1" stop-color="#fff" stop-opacity="0"/></linearGradient><linearGradient id="s" x1="392.421" y1="170.228" x2="414.657" y2="170.228" gradientUnits="userSpaceOnUse"><stop stop-color="#277AFF"/><stop offset="1" stop-color="#fff" stop-opacity="0"/></linearGradient><linearGradient id="t" x1="393.143" y1="177.793" x2="424.079" y2="177.793" gradientUnits="userSpaceOnUse"><stop stop-color="#277AFF"/><stop offset="1" stop-color="#fff" stop-opacity="0"/></linearGradient><filter id="b" x="-.651" y="-.597" width="541.737" height="339.356" filterUnits="userSpaceOnUse" color-interpolation-filters="sRGB"><feFlood flood-opacity="0" result="BackgroundImageFix"/><feColorMatrix in="SourceAlpha" values="0 0 0 0 0 0 0 0 0 0 0 0 0 0 0 0 0 0 127 0" result="hardAlpha"/><feOffset dx="4" dy="5"/><feGaussianBlur stdDeviation="8"/><feColorMatrix values="0 0 0 0 0.25098 0 0 0 0 0.266667 0 0 0 0 0.301961 0 0 0 0.12 0"/><feBlend in2="BackgroundImageFix" result="effect1_dropShadow_0_3"/><feBlend in="SourceGraphic" in2="effect1_dropShadow_0_3" result="shape"/></filter><filter id="h" x="277.79" y="69.733" width="258.676" height="331.497" filterUnits="userSpaceOnUse" color-interpolation-filters="sRGB"><feFlood flood-opacity="0" result="BackgroundImageFix"/><feColorMatrix in="SourceAlpha" values="0 0 0 0 0 0 0 0 0 0 0 0 0 0 0 0 0 0 127 0" result="hardAlpha"/><feOffset/><feGaussianBlur stdDeviation="11"/><feColorMatrix values="0 0 0 0 0.25098 0 0 0 0 0.266667 0 0 0 0 0.301961 0 0 0 0.12 0"/><feBlend in2="BackgroundImageFix" result="effect1_dropShadow_0_3"/><feBlend in="SourceGraphic" in2="effect1_dropShadow_0_3" result="shape"/></filter><filter id="i" x="300.975" y="106.159" width="41.131" height="41.131" filterUnits="userSpaceOnUse" color-interpolation-filters="sRGB"><feFlood flood-opacity="0" result="BackgroundImageFix"/><feColorMatrix in="SourceAlpha" values="0 0 0 0 0 0 0 0 0 0 0 0 0 0 0 0 0 0 127 0" result="hardAlpha"/><feOffset/><feGaussianBlur stdDeviation="6.5"/><feColorMatrix values="0 0 0 0 0.277473 0 0 0 0 0.25098 0 0 0 0 0.301961 0 0 0 0.2 0"/><feBlend in2="BackgroundImageFix" result="effect1_dropShadow_0_3"/><feBlend in="SourceGraphic" in2="effect1_dropShadow_0_3" result="shape"/></filter><filter id="j" x="291.975" y="188.893" width="230.305" height="198.151" filterUnits="userSpaceOnUse" color-interpolation-filters="sRGB"><feFlood flood-opacity="0" result="BackgroundImageFix"/><feColorMatrix in="SourceAlpha" values="0 0 0 0 0 0 0 0 0 0 0 0 0 0 0 0 0 0 127 0" result="hardAlpha"/><feOffset/><feGaussianBlur stdDeviation="11"/><feColorMatrix values="0 0 0 0 0.25098 0 0 0 0 0.266667 0 0 0 0 0.301961 0 0 0 0.12 0"/><feBlend in2="BackgroundImageFix" result="effect1_dropShadow_0_3"/><feBlend in="SourceGraphic" in2="effect1_dropShadow_0_3" result="shape"/></filter><filter id="m" x="291.975" y="129.313" width="230.305" height="93.177" filterUnits="userSpaceOnUse" color-interpolation-filters="sRGB"><feFlood flood-opacity="0" result="BackgroundImageFix"/><feColorMatrix in="SourceAlpha" values="0 0 0 0 0 0 0 0 0 0 0 0 0 0 0 0 0 0 127 0" result="hardAlpha"/><feOffset/><feGaussianBlur stdDeviation="11"/><feColorMatrix values="0 0 0 0 0.25098 0 0 0 0 0.266667 0 0 0 0 0.301961 0 0 0 0.12 0"/><feBlend in2="BackgroundImageFix" result="effect1_dropShadow_0_3"/><feBlend in="SourceGraphic" in2="effect1_dropShadow_0_3" result="shape"/></filter><clipPath id="a"><path fill="#fff" d="M0 0h540v400.035H0z"/></clipPath></defs></svg>